<mxfile host="Electron" agent="Mozilla/5.0 (Windows NT 10.0; Win64; x64) AppleWebKit/537.36 (KHTML, like Gecko) draw.io/24.7.17 Chrome/128.0.6613.36 Electron/32.0.1 Safari/537.36" version="24.7.17">
  <diagram name="PÃ¡gina-1" id="F-PPZZ2c8yOrSUxFgBlU">
    <mxGraphModel dx="244" dy="148" grid="1" gridSize="10" guides="1" tooltips="1" connect="1" arrows="1" fold="1" page="1" pageScale="1" pageWidth="827" pageHeight="1169" math="0" shadow="0">
      <root>
        <mxCell id="0" />
        <mxCell id="1" parent="0" />
        <mxCell id="ZprPUmebJvR_VU2df30p-1" value="Se presiona (On/Off)&lt;div&gt;//Habilitar Display,&lt;/div&gt;&lt;div&gt;Visualizar &quot;Bienvenido/a&quot;,&lt;/div&gt;&lt;div&gt;Visualizar &quot;Velocidad 0&quot;&lt;/div&gt;&lt;div&gt;Habilitar Botones (+)y(-)&lt;/div&gt;&lt;div&gt;Visualizar Opciones de entrenamiento,&lt;/div&gt;&lt;div&gt;Iniciar Estado de Reposo&lt;/div&gt;" style="text;html=1;align=center;verticalAlign=middle;resizable=0;points=[];autosize=1;strokeColor=none;fillColor=none;" vertex="1" parent="1">
          <mxGeometry x="350" y="5" width="230" height="110" as="geometry" />
        </mxCell>
        <mxCell id="ZprPUmebJvR_VU2df30p-2" value="" style="ellipse;whiteSpace=wrap;html=1;aspect=fixed;" vertex="1" parent="1">
          <mxGeometry x="290" y="80" width="50" height="50" as="geometry" />
        </mxCell>
        <mxCell id="ZprPUmebJvR_VU2df30p-3" value="" style="endArrow=none;html=1;rounded=0;" edge="1" parent="1">
          <mxGeometry width="50" height="50" relative="1" as="geometry">
            <mxPoint x="314.76" y="180" as="sourcePoint" />
            <mxPoint x="314.76" y="130" as="targetPoint" />
          </mxGeometry>
        </mxCell>
        <mxCell id="ZprPUmebJvR_VU2df30p-6" value="" style="edgeStyle=orthogonalEdgeStyle;rounded=0;orthogonalLoop=1;jettySize=auto;html=1;" edge="1" parent="1">
          <mxGeometry relative="1" as="geometry">
            <mxPoint x="360" y="240" as="sourcePoint" />
            <mxPoint x="360" y="320" as="targetPoint" />
          </mxGeometry>
        </mxCell>
        <mxCell id="ZprPUmebJvR_VU2df30p-4" value="Seleccionando&lt;div&gt;Programa&lt;/div&gt;" style="rounded=1;whiteSpace=wrap;html=1;" vertex="1" parent="1">
          <mxGeometry x="255" y="180" width="120" height="60" as="geometry" />
        </mxCell>
        <mxCell id="ZprPUmebJvR_VU2df30p-8" style="edgeStyle=orthogonalEdgeStyle;rounded=0;orthogonalLoop=1;jettySize=auto;html=1;curved=1;" edge="1" parent="1" source="ZprPUmebJvR_VU2df30p-5">
          <mxGeometry relative="1" as="geometry">
            <mxPoint x="380" y="320" as="targetPoint" />
            <Array as="points">
              <mxPoint x="395" y="340" />
              <mxPoint x="395" y="321" />
              <mxPoint x="380" y="321" />
            </Array>
          </mxGeometry>
        </mxCell>
        <mxCell id="ZprPUmebJvR_VU2df30p-12" style="edgeStyle=orthogonalEdgeStyle;rounded=0;orthogonalLoop=1;jettySize=auto;html=1;curved=1;" edge="1" parent="1">
          <mxGeometry relative="1" as="geometry">
            <mxPoint x="250" y="350" as="targetPoint" />
            <mxPoint x="255" y="370" as="sourcePoint" />
            <Array as="points">
              <mxPoint x="235" y="370" />
              <mxPoint x="235" y="350" />
            </Array>
          </mxGeometry>
        </mxCell>
        <mxCell id="ZprPUmebJvR_VU2df30p-17" style="edgeStyle=orthogonalEdgeStyle;rounded=0;orthogonalLoop=1;jettySize=auto;html=1;" edge="1" parent="1">
          <mxGeometry relative="1" as="geometry">
            <mxPoint x="260" y="320" as="sourcePoint" />
            <mxPoint x="260" y="240" as="targetPoint" />
          </mxGeometry>
        </mxCell>
        <mxCell id="ZprPUmebJvR_VU2df30p-28" value="" style="edgeStyle=orthogonalEdgeStyle;rounded=0;orthogonalLoop=1;jettySize=auto;html=1;" edge="1" parent="1">
          <mxGeometry relative="1" as="geometry">
            <mxPoint x="270" y="320" as="sourcePoint" />
            <mxPoint x="270" y="240" as="targetPoint" />
          </mxGeometry>
        </mxCell>
        <mxCell id="ZprPUmebJvR_VU2df30p-5" value="Cinta&lt;div&gt;Funcionando&lt;/div&gt;" style="whiteSpace=wrap;html=1;rounded=1;" vertex="1" parent="1">
          <mxGeometry x="255" y="320" width="120" height="60" as="geometry" />
        </mxCell>
        <mxCell id="ZprPUmebJvR_VU2df30p-7" value="Se selecciona Programa&lt;div&gt;//Incrementar Velocidad&lt;/div&gt;" style="text;html=1;align=center;verticalAlign=middle;resizable=0;points=[];autosize=1;strokeColor=none;fillColor=none;" vertex="1" parent="1">
          <mxGeometry x="360" y="240" width="150" height="40" as="geometry" />
        </mxCell>
        <mxCell id="ZprPUmebJvR_VU2df30p-9" value="Se presiona (+)&lt;div&gt;[Velocidad menor a 9]&lt;/div&gt;&lt;div&gt;//Incrementar Velocidad&lt;/div&gt;" style="text;html=1;align=center;verticalAlign=middle;resizable=0;points=[];autosize=1;strokeColor=none;fillColor=none;" vertex="1" parent="1">
          <mxGeometry x="390" y="280" width="150" height="60" as="geometry" />
        </mxCell>
        <mxCell id="ZprPUmebJvR_VU2df30p-10" style="edgeStyle=orthogonalEdgeStyle;rounded=0;orthogonalLoop=1;jettySize=auto;html=1;curved=1;" edge="1" parent="1">
          <mxGeometry relative="1" as="geometry">
            <mxPoint x="380" y="350" as="targetPoint" />
            <mxPoint x="375" y="370" as="sourcePoint" />
            <Array as="points">
              <mxPoint x="395" y="370" />
              <mxPoint x="395" y="351" />
              <mxPoint x="380" y="351" />
            </Array>
          </mxGeometry>
        </mxCell>
        <mxCell id="ZprPUmebJvR_VU2df30p-11" value="Se presiona (-)&lt;div&gt;[Velocidad mayor a 1]&lt;/div&gt;&lt;div&gt;//Decrementar Velocidad&lt;/div&gt;" style="text;html=1;align=center;verticalAlign=middle;resizable=0;points=[];autosize=1;strokeColor=none;fillColor=none;" vertex="1" parent="1">
          <mxGeometry x="380" y="340" width="150" height="60" as="geometry" />
        </mxCell>
        <mxCell id="ZprPUmebJvR_VU2df30p-15" value="Se presiona (+)&lt;div&gt;[Velocidad igual a 9]&lt;/div&gt;&lt;div&gt;//Emitir Pitido&lt;/div&gt;" style="text;html=1;align=center;verticalAlign=middle;resizable=0;points=[];autosize=1;strokeColor=none;fillColor=none;" vertex="1" parent="1">
          <mxGeometry x="110" y="320" width="130" height="60" as="geometry" />
        </mxCell>
        <mxCell id="ZprPUmebJvR_VU2df30p-16" value="Se presiona (-)&lt;div&gt;[Velocidad igual a 1]&lt;/div&gt;&lt;div&gt;//Decrementar Velocidad,&lt;/div&gt;&lt;div&gt;Iniciar Estado de Reposo&lt;/div&gt;" style="text;html=1;align=center;verticalAlign=middle;resizable=0;points=[];autosize=1;strokeColor=none;fillColor=none;" vertex="1" parent="1">
          <mxGeometry x="95" y="240" width="160" height="70" as="geometry" />
        </mxCell>
        <mxCell id="ZprPUmebJvR_VU2df30p-18" value="" style="ellipse;shape=doubleEllipse;whiteSpace=wrap;html=1;aspect=fixed;" vertex="1" parent="1">
          <mxGeometry x="440" y="180" width="50" height="50" as="geometry" />
        </mxCell>
        <mxCell id="ZprPUmebJvR_VU2df30p-19" value="" style="endArrow=none;html=1;rounded=0;" edge="1" parent="1" source="ZprPUmebJvR_VU2df30p-4" target="ZprPUmebJvR_VU2df30p-18">
          <mxGeometry width="50" height="50" relative="1" as="geometry">
            <mxPoint x="464.86" y="280" as="sourcePoint" />
            <mxPoint x="464.86" y="230" as="targetPoint" />
          </mxGeometry>
        </mxCell>
        <mxCell id="ZprPUmebJvR_VU2df30p-20" value="Se presiona (On/Off)&lt;div&gt;//Apagar Cinta,&lt;/div&gt;&lt;div&gt;Deshabilitar Display&lt;/div&gt;" style="text;html=1;align=center;verticalAlign=middle;resizable=0;points=[];autosize=1;strokeColor=none;fillColor=none;" vertex="1" parent="1">
          <mxGeometry x="490" y="160" width="130" height="60" as="geometry" />
        </mxCell>
        <mxCell id="ZprPUmebJvR_VU2df30p-21" value="" style="ellipse;shape=doubleEllipse;whiteSpace=wrap;html=1;aspect=fixed;" vertex="1" parent="1">
          <mxGeometry x="290" y="430" width="50" height="50" as="geometry" />
        </mxCell>
        <mxCell id="ZprPUmebJvR_VU2df30p-22" value="" style="endArrow=none;html=1;rounded=0;" edge="1" parent="1" source="ZprPUmebJvR_VU2df30p-5" target="ZprPUmebJvR_VU2df30p-21">
          <mxGeometry width="50" height="50" relative="1" as="geometry">
            <mxPoint x="314.86" y="530" as="sourcePoint" />
            <mxPoint x="315" y="450" as="targetPoint" />
          </mxGeometry>
        </mxCell>
        <mxCell id="ZprPUmebJvR_VU2df30p-24" value="Se presiona (On/Off)&lt;div&gt;//&lt;span style=&quot;background-color: initial;&quot;&gt;Fijar Velocidad en 0&lt;/span&gt;&lt;/div&gt;&lt;div&gt;Deshabilitar Display,&lt;/div&gt;&lt;div&gt;Apagar Cinta&lt;/div&gt;" style="text;html=1;align=center;verticalAlign=middle;resizable=0;points=[];autosize=1;strokeColor=none;fillColor=none;" vertex="1" parent="1">
          <mxGeometry x="344" y="425" width="140" height="70" as="geometry" />
        </mxCell>
        <mxCell id="ZprPUmebJvR_VU2df30p-26" style="edgeStyle=orthogonalEdgeStyle;rounded=0;orthogonalLoop=1;jettySize=auto;html=1;curved=1;exitX=0.145;exitY=1.029;exitDx=0;exitDy=0;exitPerimeter=0;" edge="1" parent="1" source="ZprPUmebJvR_VU2df30p-5">
          <mxGeometry relative="1" as="geometry">
            <mxPoint x="255" y="380" as="targetPoint" />
            <mxPoint x="260" y="400" as="sourcePoint" />
            <Array as="points">
              <mxPoint x="272" y="400" />
              <mxPoint x="240" y="400" />
              <mxPoint x="240" y="380" />
            </Array>
          </mxGeometry>
        </mxCell>
        <mxCell id="ZprPUmebJvR_VU2df30p-27" value="Se seleccona Programa&lt;div&gt;//Cambiar Modo de Entrenamiento&lt;/div&gt;" style="text;html=1;align=center;verticalAlign=middle;resizable=0;points=[];autosize=1;strokeColor=none;fillColor=none;" vertex="1" parent="1">
          <mxGeometry x="105" y="393" width="210" height="40" as="geometry" />
        </mxCell>
        <mxCell id="ZprPUmebJvR_VU2df30p-29" value="&lt;h5&gt;&lt;span style=&quot;font-weight: normal;&quot;&gt;Se presiona&lt;br&gt;&quot;FinDePrograma&quot;&lt;br&gt;//Se fija velocidad&amp;nbsp;&lt;br&gt;en 0&lt;/span&gt;&lt;/h5&gt;" style="text;html=1;align=left;verticalAlign=middle;resizable=0;points=[];autosize=1;strokeColor=none;fillColor=none;" vertex="1" parent="1">
          <mxGeometry x="275" y="230" width="100" height="90" as="geometry" />
        </mxCell>
      </root>
    </mxGraphModel>
  </diagram>
</mxfile>
